<?xml version="1.0" encoding="UTF-8"?>
<svg width="752pt" height="752pt" version="1.1" viewBox="0 0 752 752" xmlns="http://www.w3.org/2000/svg">
 <path d="m376 183.61c-51.023 0-99.961 20.27-136.04 56.352-36.082 36.078-56.352 85.016-56.352 136.04 0 51.027 20.27 99.961 56.352 136.04 36.078 36.082 85.016 56.352 136.04 56.352 51.027 0 99.961-20.27 136.04-56.352s56.352-85.016 56.352-136.04c0-51.023-20.27-99.961-56.352-136.04-36.082-36.082-85.016-56.352-136.04-56.352zm0 355.19v-0.003906c-29.539-0.011719-58.52-8.0625-83.836-23.285-25.312-15.227-46.008-37.055-59.863-63.141l57.273-51.207 45.285 45.285c2.7734 2.7578 6.5234 4.3047 10.434 4.3047 3.9102 0 7.6602-1.5469 10.434-4.3047l105.82-105.82v60.828c0 5.2852 2.8203 10.172 7.3984 12.816 4.5781 2.6445 10.223 2.6445 14.801 0 4.5781-2.6445 7.3984-7.5312 7.3984-12.816v-96.492c0-3.9258-1.5586-7.6914-4.3359-10.465-2.7734-2.7773-6.5391-4.3359-10.465-4.3359h-96.637c-5.2891 0-10.176 2.8203-12.82 7.4023-2.6406 4.5781-2.6406 10.219 0 14.797 2.6445 4.5781 7.5312 7.4023 12.82 7.4023h60.824l-95.309 95.309-44.398-44.398v-0.003906c-2.7461-2.5781-6.3711-4.0156-10.137-4.0156-3.7695 0-7.3945 1.4375-10.137 4.0156l-59.199 53.723c-13.695-43.984-8.1133-91.707 15.363-131.34 23.473-39.637 62.641-67.473 107.79-76.609 45.152-9.1328 92.059 1.2891 129.09 28.684s60.73 69.199 65.211 115.05c4.4805 45.848-10.676 91.445-41.703 125.49-31.031 34.047-75.035 53.352-121.1 53.129z"/>
</svg>
